<svg width="720" height="486" viewBox="0 0 720 486" fill="none" xmlns="http://www.w3.org/2000/svg" role="img" aria-labelledby="title desc">
  <title id="title">学習ゲーミフィケーションのループ</title>
  <desc id="desc">近接目標、学習行動、即時フィードバック、復習間隔を循環させる図</desc>
  <rect width="720" height="486" rx="22" fill="#FBFDFB"/>
  <rect x="58" y="58" width="604" height="370" rx="18" fill="white" stroke="#DDE7E4" stroke-width="2"/>
  <circle cx="360" cy="243" r="118" fill="#F4F8F7" stroke="#DDE7E4" stroke-width="2"/>
  <path d="M360 115C431 115 488 172 488 243C488 314 431 371 360 371C289 371 232 314 232 243C232 172 289 115 360 115Z" stroke="#0B746B" stroke-width="12" stroke-linecap="round" stroke-dasharray="220 48"/>
  <path d="M477 203L506 217L475 229" stroke="#0B746B" stroke-width="10" stroke-linecap="round" stroke-linejoin="round"/>
  <rect x="106" y="94" width="172" height="86" rx="14" fill="#E7F2EE"/>
  <rect x="126" y="118" width="72" height="10" rx="5" fill="#0B746B"/>
  <rect x="126" y="141" width="112" height="8" rx="4" fill="#9CBFB8"/>
  <rect x="126" y="158" width="84" height="8" rx="4" fill="#9CBFB8"/>
  <circle cx="278" cy="137" r="18" fill="#74B843"/>
  <path d="M270 137L276 143L287 130" stroke="white" stroke-width="5" stroke-linecap="round" stroke-linejoin="round"/>
  <rect x="438" y="94" width="176" height="86" rx="14" fill="#FFF7E8"/>
  <rect x="458" y="118" width="72" height="10" rx="5" fill="#EFAE42"/>
  <rect x="458" y="141" width="116" height="8" rx="4" fill="#D6AF65"/>
  <rect x="458" y="158" width="96" height="8" rx="4" fill="#D6AF65"/>
  <rect x="106" y="306" width="172" height="86" rx="14" fill="#EEF5FF"/>
  <rect x="126" y="330" width="82" height="10" rx="5" fill="#376FB4"/>
  <rect x="126" y="353" width="116" height="8" rx="4" fill="#8DAAD0"/>
  <rect x="126" y="370" width="92" height="8" rx="4" fill="#8DAAD0"/>
  <rect x="438" y="306" width="176" height="86" rx="14" fill="#FFF1EC"/>
  <rect x="458" y="330" width="76" height="10" rx="5" fill="#E96F4C"/>
  <rect x="458" y="353" width="112" height="8" rx="4" fill="#D99B88"/>
  <rect x="458" y="370" width="84" height="8" rx="4" fill="#D99B88"/>
  <circle cx="360" cy="243" r="58" fill="#152526"/>
  <rect x="329" y="220" width="62" height="12" rx="6" fill="#DCEFCF"/>
  <rect x="318" y="244" width="84" height="10" rx="5" fill="#9CBFB8"/>
  <rect x="336" y="264" width="48" height="10" rx="5" fill="#9CBFB8"/>
  <circle cx="360" cy="191" r="13" fill="#EFAE42"/>
  <circle cx="412" cy="243" r="13" fill="#74B843"/>
  <circle cx="360" cy="295" r="13" fill="#376FB4"/>
  <circle cx="308" cy="243" r="13" fill="#E96F4C"/>
</svg>
